<svg xmlns="http://www.w3.org/2000/svg" viewBox="0 0 1600 900"><defs><linearGradient id="g" x1="0" y1="0" x2="1" y2="1"><stop stop-color="#07111f"/><stop offset=".55" stop-color="#18395a"/><stop offset="1" stop-color="#6fa0b9"/></linearGradient></defs><rect width="1600" height="900" fill="url(#g)"/><path d="M250 690V310l550-180 550 180v380z" fill="#0d1c2d" stroke="#87b8cf" stroke-width="5"/><path d="M470 330h660v280H470z" fill="#17334e"/><rect x="730" y="360" width="140" height="190" rx="8" fill="#d4b476"/><path d="M800 350v210" stroke="#fff1c8" stroke-width="10"/><path d="M750 410h100" stroke="#fff1c8" stroke-width="10"/><rect x="690" y="560" width="220" height="55" rx="12" fill="#8a6947"/><g fill="#8eb8cb" opacity=".9"><circle cx="420" cy="670" r="35"/><circle cx="520" cy="690" r="35"/><circle cx="620" cy="670" r="35"/><circle cx="980" cy="670" r="35"/><circle cx="1080" cy="690" r="35"/><circle cx="1180" cy="670" r="35"/></g><g fill="#bdd9e4" opacity=".55"><circle cx="350" cy="760" r="24"/><circle cx="460" cy="770" r="24"/><circle cx="570" cy="755" r="24"/><circle cx="1030" cy="755" r="24"/><circle cx="1140" cy="770" r="24"/><circle cx="1250" cy="760" r="24"/></g></svg>